<svg width="38" height="38" viewBox="0 0 38 38" fill="none" xmlns="http://www.w3.org/2000/svg">
<rect x="0.5" y="0.5" width="37" height="37" rx="7.5" fill="white"/>
<rect x="0.5" y="0.5" width="37" height="37" rx="7.5" stroke="#EDEDED"/>
<path d="M11.667 23.167H21.75C21.8835 23.167 21.972 23.2065 22.0498 23.2842C22.1275 23.3619 22.1673 23.4499 22.167 23.582C22.1667 23.7156 22.1264 23.8057 22.0478 23.8848C21.9714 23.9617 21.8841 24.0006 21.7519 24H11.667C11.5335 24 11.4451 23.96 11.3682 23.8828C11.2903 23.8046 11.2503 23.7155 11.25 23.582C11.2497 23.4505 11.2891 23.363 11.3672 23.2852C11.4463 23.2063 11.5354 23.167 11.667 23.167ZM25.9668 15.3066C26.1074 15.3067 26.1898 15.347 26.2549 15.4121C26.3199 15.4772 26.3603 15.5597 26.3603 15.7002C26.3603 15.8407 26.32 15.9232 26.2549 15.9883L23.2432 19L26.2549 22.0117C26.32 22.0768 26.3603 22.1593 26.3603 22.2998C26.3603 22.4403 26.3199 22.5228 26.2549 22.5879C26.1898 22.653 26.1074 22.6933 25.9668 22.6934C25.8261 22.6934 25.7438 22.653 25.6787 22.5879L22.3789 19.2881C22.283 19.1922 22.25 19.1032 22.25 19C22.25 18.8968 22.283 18.8078 22.3789 18.7119L25.6787 15.4121C25.7438 15.347 25.8261 15.3066 25.9668 15.3066ZM11.667 18.583H19C19.1335 18.583 19.222 18.6234 19.2998 18.7012C19.3775 18.7789 19.4173 18.8669 19.417 18.999C19.4166 19.1323 19.3762 19.2218 19.2978 19.3008C19.2214 19.3778 19.1342 19.4176 19.0019 19.417H11.667C11.5335 19.417 11.4451 19.377 11.3682 19.2998C11.2903 19.2216 11.2504 19.1324 11.25 18.999C11.2497 18.8674 11.2891 18.779 11.3672 18.7012C11.4462 18.6225 11.5355 18.583 11.667 18.583ZM11.667 14H21.75C21.8834 14 21.9721 14.0396 22.0498 14.1172C22.1274 14.1948 22.1672 14.2831 22.167 14.415C22.1667 14.5485 22.1263 14.6387 22.0478 14.7178C21.9714 14.7948 21.8842 14.8336 21.7519 14.833H11.667C11.5336 14.833 11.4451 14.7939 11.3682 14.7168C11.2902 14.6386 11.2503 14.5485 11.25 14.415C11.2498 14.2837 11.2892 14.1959 11.3672 14.1182C11.4463 14.0394 11.5354 14 11.667 14Z" stroke="black"/>
</svg>
