<svg width="22" height="22" viewBox="0 0 22 22" fill="none" xmlns="http://www.w3.org/2000/svg">
<mask id="path-1-inside-1_107_14" fill="white">
<path d="M11.2805 12.848C11.9577 12.9174 12.585 13.2356 13.0412 13.7408C13.4974 14.2461 13.7499 14.9026 13.75 15.5833C13.75 16.9968 12.8883 18.1665 11.7297 18.9383C10.5655 19.7157 9.00717 20.1667 7.33333 20.1667C5.6595 20.1667 4.10117 19.7157 2.937 18.9383C1.7765 18.1683 0.916668 16.9968 0.916668 15.5833C0.916668 14.854 1.2064 14.1545 1.72212 13.6388C2.23785 13.1231 2.93732 12.8333 3.66667 12.8333H11L11.2805 12.848ZM18.3388 12.8333C19.0682 12.8333 19.7677 13.1231 20.2834 13.6388C20.7991 14.1545 21.0888 14.854 21.0888 15.5833C21.0888 16.8575 20.2968 17.8035 19.2867 18.3847C18.282 18.9622 16.9675 19.25 15.5888 19.25C15.1244 19.2488 14.6716 19.2146 14.2303 19.1473C15.0242 18.2087 15.5852 17.0097 15.5852 15.5833C15.5831 14.5908 15.2588 13.6258 14.6612 12.8333H18.3388ZM7.337 2.74267C7.88663 2.73133 8.43299 2.82983 8.94406 3.03239C9.45513 3.23494 9.92063 3.53748 10.3133 3.92227C10.7059 4.30706 11.0178 4.76636 11.2306 5.27323C11.4434 5.78011 11.5529 6.32438 11.5527 6.87412C11.5524 7.42387 11.4424 7.96804 11.2292 8.47473C11.0159 8.98142 10.7036 9.44044 10.3106 9.82488C9.91766 10.2093 9.4519 10.5114 8.94065 10.7135C8.4294 10.9156 7.88295 11.0137 7.33333 11.0018C6.25317 10.9791 5.22491 10.534 4.46904 9.76203C3.71317 8.99006 3.28985 7.95266 3.28985 6.87225C3.28985 5.79185 3.71317 4.75444 4.46904 3.98248C5.22491 3.21051 6.25317 2.76543 7.33333 2.74267M16.0417 4.57784C16.463 4.57784 16.8802 4.66082 17.2694 4.82206C17.6587 4.98329 18.0124 5.21961 18.3103 5.51753C18.6082 5.81546 18.8445 6.16914 19.0058 6.55839C19.167 6.94765 19.25 7.36485 19.25 7.78617C19.25 8.20749 19.167 8.62469 19.0058 9.01395C18.8445 9.4032 18.6082 9.75688 18.3103 10.0548C18.0124 10.3527 17.6587 10.589 17.2694 10.7503C16.8802 10.9115 16.463 10.9945 16.0417 10.9945C15.1908 10.9945 14.3747 10.6565 13.773 10.0548C13.1714 9.45312 12.8333 8.63707 12.8333 7.78617C12.8333 6.93527 13.1714 6.11921 13.773 5.51753C14.3747 4.91586 15.1908 4.57784 16.0417 4.57784Z"/>
</mask>
<path d="M11.2805 12.848L11.4233 11.4553L11.3885 11.4517L11.3536 11.4499L11.2805 12.848ZM13.75 15.5833H15.15V15.5832L13.75 15.5833ZM11.7297 18.9383L10.9535 17.7732L10.9522 17.774L11.7297 18.9383ZM2.937 18.9383L3.71443 17.774L3.71103 17.7718L2.937 18.9383ZM0.916668 15.5833H-0.483332H0.916668ZM3.66667 12.8333V11.4333V12.8333ZM11 12.8333L11.0731 11.4352L11.0366 11.4333H11V12.8333ZM21.0888 15.5833H22.4888H21.0888ZM19.2867 18.3847L19.9844 19.5984L19.9848 19.5982L19.2867 18.3847ZM15.5888 19.25L15.5852 20.65H15.5888V19.25ZM14.2303 19.1473L13.1614 18.2433L11.5451 20.1544L14.0195 20.5314L14.2303 19.1473ZM15.5852 15.5833H16.9852L16.9852 15.5804L15.5852 15.5833ZM14.6612 12.8333V11.4333H11.8518L13.5434 13.6763L14.6612 12.8333ZM7.33333 11.0018L7.36344 9.60216L7.36283 9.60215L7.33333 11.0018ZM16.0417 4.57784V5.97784V4.57784ZM16.0417 10.9945V9.5945V10.9945ZM12.8333 7.78617H14.2333H12.8333ZM11.2805 12.848L11.1377 14.2407C11.4701 14.2748 11.7781 14.431 12.002 14.679L13.0412 13.7408L14.0804 12.8027C13.392 12.0402 12.4452 11.5601 11.4233 11.4553L11.2805 12.848ZM13.0412 13.7408L12.002 14.679C12.226 14.927 12.35 15.2493 12.35 15.5835L13.75 15.5833L15.15 15.5832C15.1499 14.5559 14.7688 13.5652 14.0804 12.8027L13.0412 13.7408ZM13.75 15.5833H12.35C12.35 16.38 11.8649 17.1661 10.9535 17.7732L11.7297 18.9383L12.5058 20.1035C13.9118 19.1669 15.15 17.6137 15.15 15.5833H13.75ZM11.7297 18.9383L10.9522 17.774C10.0488 18.3773 8.76965 18.7667 7.33333 18.7667V20.1667V21.5667C9.24469 21.5667 11.0822 21.0541 12.5071 20.1026L11.7297 18.9383ZM7.33333 20.1667V18.7667C5.89702 18.7667 4.61785 18.3773 3.71443 17.774L2.937 18.9383L2.15957 20.1026C3.58448 21.0541 5.42198 21.5667 7.33333 21.5667V20.1667ZM2.937 18.9383L3.71103 17.7718C2.8016 17.1684 2.31667 16.3815 2.31667 15.5833H0.916668H-0.483332C-0.483332 17.6122 0.751402 19.1683 2.16297 20.1049L2.937 18.9383ZM0.916668 15.5833H2.31667C2.31667 15.2253 2.4589 14.8819 2.71207 14.6287L1.72212 13.6388L0.732175 12.6488C-0.0461013 13.4271 -0.483332 14.4827 -0.483332 15.5833H0.916668ZM1.72212 13.6388L2.71207 14.6287C2.96525 14.3756 3.30863 14.2333 3.66667 14.2333V12.8333V11.4333C2.56602 11.4333 1.51045 11.8706 0.732175 12.6488L1.72212 13.6388ZM3.66667 12.8333V14.2333H11V12.8333V11.4333H3.66667V12.8333ZM11 12.8333L10.9269 14.2314L11.2074 14.2461L11.2805 12.848L11.3536 11.4499L11.0731 11.4352L11 12.8333ZM18.3388 12.8333V14.2333C18.6969 14.2333 19.0403 14.3756 19.2934 14.6287L20.2834 13.6388L21.2733 12.6488C20.4951 11.8706 19.4395 11.4333 18.3388 11.4333V12.8333ZM20.2834 13.6388L19.2934 14.6287C19.5466 14.8819 19.6888 15.2253 19.6888 15.5833H21.0888H22.4888C22.4888 14.4827 22.0516 13.4271 21.2733 12.6488L20.2834 13.6388ZM21.0888 15.5833H19.6888C19.6888 16.194 19.3266 16.7465 18.5885 17.1712L19.2867 18.3847L19.9848 19.5982C21.267 18.8605 22.4888 17.521 22.4888 15.5833H21.0888ZM19.2867 18.3847L18.589 17.1709C17.8509 17.5951 16.7941 17.85 15.5888 17.85V19.25V20.65C17.1409 20.65 18.7131 20.3292 19.9844 19.5984L19.2867 18.3847ZM15.5888 19.25L15.5925 17.85C15.1946 17.849 14.8111 17.8197 14.4412 17.7633L14.2303 19.1473L14.0195 20.5314C14.532 20.6094 15.0541 20.6486 15.5852 20.65L15.5888 19.25ZM14.2303 19.1473L15.2993 20.0514C16.2648 18.9097 16.9852 17.4005 16.9852 15.5833H15.5852H14.1852C14.1852 16.6189 13.7835 17.5076 13.1614 18.2433L14.2303 19.1473ZM15.5852 15.5833L16.9852 15.5804C16.9824 14.2846 16.5591 13.0248 15.7789 11.9904L14.6612 12.8333L13.5434 13.6763C13.9585 14.2267 14.1837 14.897 14.1852 15.5863L15.5852 15.5833ZM14.6612 12.8333V14.2333H18.3388V12.8333V11.4333H14.6612V12.8333ZM7.337 2.74267L7.36587 4.14237C7.7292 4.13488 8.09038 4.19999 8.42823 4.33389L8.94406 3.03239L9.4599 1.73088C8.77561 1.45967 8.04406 1.32779 7.30814 1.34297L7.337 2.74267ZM8.94406 3.03239L8.42823 4.33389C8.76607 4.46779 9.07379 4.66779 9.33334 4.92216L10.3133 3.92227L11.2932 2.92239C10.7675 2.40718 10.1442 2.00209 9.4599 1.73088L8.94406 3.03239ZM10.3133 3.92227L9.33334 4.92216C9.5929 5.17652 9.79906 5.48014 9.93975 5.81522L11.2306 5.27323L12.5214 4.73125C12.2365 4.05257 11.8189 3.4376 11.2932 2.92239L10.3133 3.92227ZM11.2306 5.27323L9.93975 5.81522C10.0804 6.1503 10.1528 6.51009 10.1527 6.8735L11.5527 6.87412L12.9527 6.87475C12.953 6.13867 12.8064 5.40993 12.5214 4.73125L11.2306 5.27323ZM11.5527 6.87412L10.1527 6.8735C10.1525 7.23692 10.0798 7.59664 9.93881 7.93159L11.2292 8.47473L12.5195 9.01786C12.8051 8.33943 12.9523 7.61082 12.9527 6.87475L11.5527 6.87412ZM11.2292 8.47473L9.93881 7.93159C9.79782 8.26655 9.59139 8.56998 9.33161 8.82412L10.3106 9.82488L11.2897 10.8256C11.8158 10.3109 12.2339 9.69629 12.5195 9.01786L11.2292 8.47473ZM10.3106 9.82488L9.33161 8.82412C9.07183 9.07826 8.76394 9.27798 8.42597 9.41158L8.94065 10.7135L9.45533 12.0155C10.1399 11.7449 10.7635 11.3404 11.2897 10.8256L10.3106 9.82488ZM8.94065 10.7135L8.42597 9.41158C8.08801 9.54518 7.72677 9.60998 7.36344 9.60216L7.33333 11.0018L7.30323 12.4015C8.03913 12.4173 8.7708 12.2861 9.45533 12.0155L8.94065 10.7135ZM7.33333 11.0018L7.36283 9.60215C6.64878 9.5871 5.96904 9.29288 5.46936 8.78256L4.46904 9.76203L3.46872 10.7415C4.48079 11.7751 5.85756 12.371 7.30384 12.4015L7.33333 11.0018ZM4.46904 9.76203L5.46936 8.78256C4.96969 8.27225 4.68985 7.58646 4.68985 6.87225H3.28985H1.88985C1.88985 8.31885 2.45665 9.70787 3.46872 10.7415L4.46904 9.76203ZM3.28985 6.87225H4.68985C4.68985 6.15804 4.96969 5.47226 5.46936 4.96194L4.46904 3.98248L3.46872 3.00301C2.45665 4.03663 1.88985 5.42565 1.88985 6.87225H3.28985ZM4.46904 3.98248L5.46936 4.96194C5.96904 4.45163 6.64877 4.1574 7.36283 4.14236L7.33333 2.74267L7.30384 1.34298C5.85756 1.37345 4.48079 1.96939 3.46872 3.00301L4.46904 3.98248ZM16.0417 4.57784V5.97784C16.2791 5.97784 16.5143 6.02461 16.7337 6.11549L17.2694 4.82206L17.8052 3.52862C17.2461 3.29703 16.6468 3.17784 16.0417 3.17784V4.57784ZM17.2694 4.82206L16.7337 6.11549C16.9531 6.20636 17.1524 6.33957 17.3204 6.50748L18.3103 5.51753L19.3003 4.52759C18.8723 4.09966 18.3643 3.76021 17.8052 3.52862L17.2694 4.82206ZM18.3103 5.51753L17.3204 6.50748C17.4883 6.6754 17.6215 6.87475 17.7123 7.09415L19.0058 6.55839L20.2992 6.02264C20.0676 5.46353 19.7282 4.95551 19.3003 4.52759L18.3103 5.51753ZM19.0058 6.55839L17.7123 7.09415C17.8032 7.31355 17.85 7.5487 17.85 7.78617H19.25H20.65C20.65 7.18099 20.5308 6.58174 20.2992 6.02264L19.0058 6.55839ZM19.25 7.78617H17.85C17.85 8.02364 17.8032 8.25879 17.7123 8.47819L19.0058 9.01395L20.2992 9.5497C20.5308 8.9906 20.65 8.39135 20.65 7.78617H19.25ZM19.0058 9.01395L17.7123 8.47819C17.6215 8.69759 17.4883 8.89694 17.3204 9.06485L18.3103 10.0548L19.3003 11.0448C19.7282 10.6168 20.0676 10.1088 20.2992 9.5497L19.0058 9.01395ZM18.3103 10.0548L17.3204 9.06485C17.1524 9.23277 16.9531 9.36597 16.7337 9.45685L17.2694 10.7503L17.8052 12.0437C18.3643 11.8121 18.8723 11.4727 19.3003 11.0448L18.3103 10.0548ZM17.2694 10.7503L16.7337 9.45685C16.5143 9.54773 16.2791 9.5945 16.0417 9.5945V10.9945V12.3945C16.6468 12.3945 17.2461 12.2753 17.8052 12.0437L17.2694 10.7503ZM16.0417 10.9945V9.5945C15.5621 9.5945 15.1021 9.40398 14.763 9.06485L13.773 10.0548L12.7831 11.0448C13.6473 11.909 14.8195 12.3945 16.0417 12.3945V10.9945ZM13.773 10.0548L14.763 9.06485C14.4239 8.72573 14.2333 8.26577 14.2333 7.78617H12.8333H11.4333C11.4333 9.00838 11.9189 10.1805 12.7831 11.0448L13.773 10.0548ZM12.8333 7.78617H14.2333C14.2333 7.30657 14.4239 6.84661 14.763 6.50748L13.773 5.51753L12.7831 4.52759C11.9189 5.39182 11.4333 6.56396 11.4333 7.78617H12.8333ZM13.773 5.51753L14.763 6.50748C15.1021 6.16836 15.5621 5.97784 16.0417 5.97784V4.57784V3.17784C14.8195 3.17784 13.6473 3.66336 12.7831 4.52759L13.773 5.51753Z" fill="black" mask="url(#path-1-inside-1_107_14)"/>
</svg>
