<svg width="22" height="22" viewBox="0 0 22 22" fill="none" xmlns="http://www.w3.org/2000/svg">
<path d="M13.2917 5.50002C13.249 4.49772 13.1218 3.85905 12.744 3.36763C12.5974 3.17695 12.4264 3.00627 12.2353 2.85995C11.4933 2.29169 10.4161 2.29169 8.26179 2.29169H7.80252C5.20471 2.29169 3.9058 2.29169 3.09876 3.09713C2.29172 3.90258 2.29171 5.19896 2.2917 7.79166L2.29169 14.2084C2.29168 16.8011 2.29167 18.0974 3.09872 18.9029C3.90576 19.7084 5.20468 19.7084 7.80252 19.7084H8.26174C10.4161 19.7084 11.4933 19.7084 12.2353 19.1401C12.4263 18.9938 12.5974 18.8231 12.744 18.6325C13.1218 18.1409 13.249 17.5022 13.2917 16.4997" stroke="#E1332B" stroke-width="2" stroke-linecap="round" stroke-linejoin="round"/>
<path d="M18.7917 10.9999H7.79169M16.5 14.2084C16.5 14.2084 19.7083 11.8455 19.7083 11C19.7083 10.1546 16.5 7.79169 16.5 7.79169" stroke="#E1332B" stroke-width="2" stroke-linecap="round" stroke-linejoin="round"/>
</svg>
