<svg width="22" height="22" viewBox="0 0 22 22" fill="none" xmlns="http://www.w3.org/2000/svg">
<path d="M12.8333 8.25C12.5736 8.25 12.3561 8.162 12.1807 7.986C12.0053 7.81 11.9173 7.59244 11.9167 7.33333V3.66667C11.9167 3.40694 12.0047 3.18939 12.1807 3.014C12.3567 2.83861 12.5742 2.75061 12.8333 2.75H18.3333C18.5931 2.75 18.8109 2.838 18.9869 3.014C19.1629 3.19 19.2506 3.40756 19.25 3.66667V7.33333C19.25 7.59306 19.162 7.81092 18.986 7.98692C18.81 8.16292 18.5924 8.25061 18.3333 8.25H12.8333ZM3.66667 11.9167C3.40694 11.9167 3.18939 11.8287 3.014 11.6527C2.83861 11.4767 2.75061 11.2591 2.75 11V3.66667C2.75 3.40694 2.838 3.18939 3.014 3.014C3.19 2.83861 3.40756 2.75061 3.66667 2.75H9.16667C9.42639 2.75 9.64425 2.838 9.82025 3.014C9.99625 3.19 10.0839 3.40756 10.0833 3.66667V11C10.0833 11.2597 9.99533 11.4776 9.81933 11.6536C9.64333 11.8296 9.42578 11.9173 9.16667 11.9167H3.66667ZM12.8333 19.25C12.5736 19.25 12.3561 19.162 12.1807 18.986C12.0053 18.81 11.9173 18.5924 11.9167 18.3333V11C11.9167 10.7403 12.0047 10.5227 12.1807 10.3473C12.3567 10.1719 12.5742 10.0839 12.8333 10.0833H18.3333C18.5931 10.0833 18.8109 10.1713 18.9869 10.3473C19.1629 10.5233 19.2506 10.7409 19.25 11V18.3333C19.25 18.5931 19.162 18.8109 18.986 18.9869C18.81 19.1629 18.5924 19.2506 18.3333 19.25H12.8333ZM3.66667 19.25C3.40694 19.25 3.18939 19.162 3.014 18.986C2.83861 18.81 2.75061 18.5924 2.75 18.3333V14.6667C2.75 14.4069 2.838 14.1894 3.014 14.014C3.19 13.8386 3.40756 13.7506 3.66667 13.75H9.16667C9.42639 13.75 9.64425 13.838 9.82025 14.014C9.99625 14.19 10.0839 14.4076 10.0833 14.6667V18.3333C10.0833 18.5931 9.99533 18.8109 9.81933 18.9869C9.64333 19.1629 9.42578 19.2506 9.16667 19.25H3.66667Z" fill="#E1332B"/>
</svg>
