<svg width="40" height="40" viewBox="0 0 40 40" fill="none" xmlns="http://www.w3.org/2000/svg">
<rect x="0.5" y="0.5" width="39" height="39" rx="7.5" fill="white"/>
<rect x="0.5" y="0.5" width="39" height="39" rx="7.5" stroke="#D3D3D3"/>
<mask id="path-2-inside-1_1_139" fill="white">
<path d="M27.5004 26.125V27H12.5004V26.125L14.167 24.375L14.167 19.125C14.167 16.4125 15.8587 14.0238 18.3337 13.2538V13C18.3337 12.5359 18.5093 12.0908 18.8219 11.7626C19.1344 11.4344 19.5583 11.25 20.0004 11.25C20.4424 11.25 20.8663 11.4344 21.1789 11.7626C21.4914 12.0908 21.667 12.5359 21.667 13V13.2538C24.142 14.0238 25.8337 16.4125 25.8337 19.125V24.375L27.5004 26.125ZM21.667 27.875C21.667 28.3391 21.4914 28.7843 21.1789 29.1124C20.8663 29.4406 20.4424 29.625 20.0004 29.625C19.5583 29.625 19.1344 29.4406 18.8219 29.1124C18.5093 28.7843 18.3337 28.3391 18.3337 27.875"/>
</mask>
<path d="M27.5004 26.125H28.9004V25.565L28.5142 25.1595L27.5004 26.125ZM27.5004 27V28.4L28.9004 28.4L28.9004 27H27.5004ZM12.5004 27H11.1004V28.4H12.5004V27ZM12.5004 26.125L11.4866 25.1595L11.1004 25.565V26.125H12.5004ZM14.167 24.375L15.1808 25.3405L15.567 24.935V24.375H14.167ZM18.3337 13.2538L18.7496 14.5906L19.7337 14.2844V13.2538H18.3337ZM20.0004 11.25V9.85001V11.25ZM21.667 13.2538H20.267V14.2844L21.2511 14.5906L21.667 13.2538ZM25.8337 24.375H24.4337V24.935L24.8199 25.3405L25.8337 24.375ZM27.5004 26.125H26.1004V27H27.5004H28.9004V26.125H27.5004ZM27.5004 27V25.6H12.5004V27V28.4H27.5004V27ZM12.5004 27H13.9004V26.125H12.5004H11.1004V27H12.5004ZM12.5004 26.125L13.5142 27.0905L15.1808 25.3405L14.167 24.375L13.1532 23.4095L11.4866 25.1595L12.5004 26.125ZM14.167 24.375H15.567L15.567 19.125H14.167H12.767L12.767 24.375H14.167ZM14.167 19.125H15.567C15.567 16.984 16.8986 15.1664 18.7496 14.5906L18.3337 13.2538L17.9178 11.917C14.8188 12.8811 12.767 15.841 12.767 19.125H14.167ZM18.3337 13.2538H19.7337V13H18.3337H16.9337V13.2538H18.3337ZM18.3337 13H19.7337C19.7337 12.8857 19.7776 12.7891 19.8356 12.7281L18.8219 11.7626L17.8081 10.7971C17.241 11.3924 16.9337 12.186 16.9337 13H18.3337ZM18.8219 11.7626L19.8356 12.7281C19.8915 12.6694 19.9523 12.65 20.0004 12.65V11.25V9.85001C19.1644 9.85001 18.3773 10.1993 17.8081 10.7971L18.8219 11.7626ZM20.0004 11.25V12.65C20.0484 12.65 20.1092 12.6694 20.1651 12.7281L21.1789 11.7626L22.1927 10.7971C21.6234 10.1993 20.8363 9.85001 20.0004 9.85001V11.25ZM21.1789 11.7626L20.1651 12.7281C20.2232 12.7891 20.267 12.8857 20.267 13L21.667 13H23.067C23.067 12.186 22.7597 11.3924 22.1927 10.7971L21.1789 11.7626ZM21.667 13L20.267 13V13.2538H21.667L23.067 13.2538V13H21.667ZM21.667 13.2538L21.2511 14.5906C23.1021 15.1664 24.4337 16.984 24.4337 19.125H25.8337H27.2337C27.2337 15.841 25.1819 12.8811 22.0829 11.917L21.667 13.2538ZM25.8337 19.125H24.4337V24.375H25.8337H27.2337V19.125H25.8337ZM25.8337 24.375L24.8199 25.3405L26.4866 27.0905L27.5004 26.125L28.5142 25.1595L26.8475 23.4095L25.8337 24.375ZM21.667 27.875H20.267C20.267 27.9893 20.2232 28.0859 20.1651 28.1469L21.1789 29.1124L22.1927 30.078C22.7597 29.4826 23.067 28.689 23.067 27.875H21.667ZM21.1789 29.1124L20.1651 28.1469C20.1092 28.2056 20.0484 28.225 20.0004 28.225V29.625V31.025C20.8363 31.025 21.6234 30.6757 22.1927 30.078L21.1789 29.1124ZM20.0004 29.625V28.225C19.9523 28.225 19.8915 28.2056 19.8356 28.1469L18.8219 29.1124L17.8081 30.078C18.3773 30.6757 19.1644 31.025 20.0004 31.025V29.625ZM18.8219 29.1124L19.8356 28.1469C19.7776 28.0859 19.7337 27.9893 19.7337 27.875H18.3337H16.9337C16.9337 28.689 17.241 29.4826 17.8081 30.078L18.8219 29.1124Z" fill="black" mask="url(#path-2-inside-1_1_139)"/>
<circle cx="23" cy="14" r="3" fill="#FF0000"/>
</svg>
