<svg width="40" height="40" viewBox="0 0 40 40" fill="none" xmlns="http://www.w3.org/2000/svg">
<rect x="0.5" y="0.5" width="39" height="39" rx="7.5" fill="white"/>
<rect x="0.5" y="0.5" width="39" height="39" rx="7.5" stroke="#D3D3D3"/>
<path d="M20 28.75C21.1493 28.7514 22.2875 28.5257 23.3493 28.0859C24.4111 27.6461 25.3755 27.0008 26.1871 26.1871C27.0008 25.3755 27.6461 24.4111 28.0859 23.3493C28.5257 22.2875 28.7514 21.1493 28.75 20C28.7514 18.8507 28.5257 17.7125 28.0859 16.6507C27.6461 15.5889 27.0008 14.6245 26.1871 13.8129C25.3755 12.9992 24.4111 12.3539 23.3493 11.9141C22.2875 11.4743 21.1493 11.2486 20 11.25C18.8507 11.2486 17.7125 11.4743 16.6507 11.9141C15.5889 12.3539 14.6245 12.9992 13.8129 13.8129C12.9992 14.6245 12.3539 15.5889 11.9141 16.6507C11.4743 17.7125 11.2486 18.8507 11.25 20C11.2486 21.1493 11.4743 22.2875 11.9141 23.3493C12.3539 24.4111 12.9992 25.3755 13.8129 26.1871C14.6245 27.0008 15.5889 27.6461 16.6507 28.0859C17.7125 28.5257 18.8507 28.7514 20 28.75Z" stroke="black" stroke-width="1.3" stroke-linejoin="round"/>
<path d="M20 22.0234V20.2734C20.5192 20.2734 21.0267 20.1195 21.4584 19.831C21.8901 19.5426 22.2265 19.1326 22.4252 18.653C22.6239 18.1733 22.6758 17.6455 22.5746 17.1363C22.4733 16.6271 22.2233 16.1594 21.8562 15.7923C21.489 15.4252 21.0213 15.1752 20.5121 15.0739C20.0029 14.9726 19.4751 15.0246 18.9955 15.2233C18.5158 15.4219 18.1058 15.7584 17.8174 16.1901C17.529 16.6217 17.375 17.1293 17.375 17.6484" stroke="black" stroke-width="1.3" stroke-linecap="round" stroke-linejoin="round"/>
<path fill-rule="evenodd" clip-rule="evenodd" d="M20 25.9609C20.2901 25.9609 20.5683 25.8457 20.7734 25.6406C20.9785 25.4355 21.0937 25.1573 21.0937 24.8672C21.0937 24.5771 20.9785 24.2989 20.7734 24.0938C20.5683 23.8887 20.2901 23.7734 20 23.7734C19.7099 23.7734 19.4317 23.8887 19.2266 24.0938C19.0215 24.2989 18.9062 24.5771 18.9062 24.8672C18.9062 25.1573 19.0215 25.4355 19.2266 25.6406C19.4317 25.8457 19.7099 25.9609 20 25.9609Z" fill="black"/>
</svg>
