<svg width="40" height="40" viewBox="0 0 40 40" fill="none" xmlns="http://www.w3.org/2000/svg">
<rect width="40" height="40" rx="8" fill="#FFF2F1"/>
<path d="M21.498 10H16.498C15.6696 10 14.998 10.6716 14.998 11.5C14.998 12.3284 15.6696 13 16.498 13H21.498C22.3265 13 22.998 12.3284 22.998 11.5C22.998 10.6716 22.3265 10 21.498 10Z" stroke="#FF0000" stroke-width="1.5" stroke-linecap="round" stroke-linejoin="round"/>
<path d="M14.998 23H18.4266M14.998 19H22.998" stroke="#FF0000" stroke-width="1.5" stroke-linecap="round" stroke-linejoin="round"/>
<path d="M26.998 21.9995L26.9981 17.4826C26.9981 14.6542 26.9981 13.24 26.1194 12.3614C25.4781 11.7201 24.5515 11.5468 22.9981 11.5M20.998 29.9995H16.998C14.1696 29.9995 12.7554 29.9995 11.8767 29.1208C10.9981 28.2421 10.998 26.8279 10.998 23.9995L10.9981 17.4827C10.998 14.6542 10.998 13.24 11.8767 12.3614C12.518 11.7201 13.4446 11.5468 14.9979 11.5" stroke="#FF0000" stroke-width="1.5" stroke-linecap="round" stroke-linejoin="round"/>
<path d="M28.998 25L26.498 27.5M26.498 27.5L23.998 30M26.498 27.5L28.998 30M26.498 27.5L23.998 25" stroke="#FF0000" stroke-width="1.5" stroke-linecap="round" stroke-linejoin="round"/>
</svg>
