<svg width="36" height="36" viewBox="0 0 36 36" fill="none" xmlns="http://www.w3.org/2000/svg">
<rect width="36" height="36" rx="8" fill="#F2F2F2"/>
<path d="M26.6578 9.49454C26.6507 9.45999 26.6338 9.42819 26.6093 9.40287C26.5847 9.37755 26.5534 9.35975 26.5191 9.35157C24.2312 8.79219 18.9449 10.7856 16.0808 13.6484C15.57 14.1551 15.1043 14.7054 14.6891 15.293C13.8058 15.2148 12.9226 15.2801 12.1699 15.6082C10.0461 16.543 9.42772 18.982 9.25546 20.0313C9.24569 20.0887 9.24937 20.1476 9.26622 20.2034C9.28308 20.2591 9.31264 20.3102 9.35258 20.3526C9.39252 20.395 9.44176 20.4276 9.49641 20.4477C9.55107 20.4679 9.60966 20.4751 9.66757 20.4688L13.0781 20.0926C13.0805 20.3497 13.0961 20.6066 13.1246 20.8621C13.1418 21.0396 13.2205 21.2054 13.3473 21.3309L14.668 22.6484C14.7935 22.775 14.9593 22.8537 15.1367 22.8711C15.3908 22.8995 15.6462 22.915 15.9019 22.9176L15.5277 26.3238C15.5215 26.3817 15.5287 26.4403 15.5489 26.4949C15.5691 26.5495 15.6017 26.5987 15.644 26.6386C15.6864 26.6786 15.7375 26.7081 15.7932 26.725C15.8489 26.7419 15.9078 26.7456 15.9652 26.7359C17.0125 26.568 19.4558 25.9496 20.3851 23.8258C20.7133 23.0731 20.7805 22.1941 20.7047 21.3152C21.2937 20.8999 21.8454 20.4341 22.3535 19.9231C25.2266 17.0645 27.2086 11.8961 26.6578 9.49454ZM19.4871 16.5129C19.2248 16.2507 19.0461 15.9166 18.9736 15.5529C18.9012 15.1891 18.9382 14.8121 19.0801 14.4694C19.222 14.1267 19.4623 13.8338 19.7707 13.6277C20.079 13.4216 20.4416 13.3116 20.8125 13.3116C21.1834 13.3116 21.5459 13.4216 21.8543 13.6277C22.1627 13.8338 22.403 14.1267 22.5449 14.4694C22.6868 14.8121 22.7238 15.1891 22.6514 15.5529C22.5789 15.9166 22.4002 16.2507 22.1379 16.5129C21.9639 16.6871 21.7573 16.8253 21.5299 16.9196C21.3025 17.0139 21.0587 17.0624 20.8125 17.0624C20.5663 17.0624 20.3225 17.0139 20.0951 16.9196C19.8677 16.8253 19.6611 16.6871 19.4871 16.5129Z" fill="#FF7F00"/>
<path d="M14.5781 23.6027C14.3641 23.8172 14.0207 23.9008 13.6074 23.9723C12.6789 24.1305 11.859 23.3281 12.0258 22.3895C12.0895 22.0336 12.2777 21.5348 12.3949 21.4176C12.4205 21.3925 12.4376 21.3599 12.4436 21.3245C12.4497 21.2892 12.4445 21.2528 12.4287 21.2206C12.4129 21.1884 12.3874 21.162 12.3557 21.1451C12.3241 21.1282 12.2879 21.1217 12.2523 21.1266C11.7331 21.1901 11.2501 21.4255 10.8801 21.7953C9.96172 22.7145 9.875 26.125 9.875 26.125C9.875 26.125 13.2875 26.0383 14.2059 25.1191C14.5768 24.7495 14.8125 24.2657 14.875 23.7457C14.8895 23.5824 14.6906 23.4852 14.5781 23.6027Z" fill="#FF7F00"/>
</svg>
