<svg width="38" height="38" viewBox="0 0 38 38" fill="none" xmlns="http://www.w3.org/2000/svg">
<rect width="38" height="38" rx="8" fill="#F2F2F2"/>
<path d="M19.6875 27.9375C19.5956 27.9375 19.5048 27.9192 19.4201 27.8835C19.3355 27.8478 19.2589 27.7956 19.1948 27.7298C19.1308 27.664 19.0805 27.5861 19.047 27.5006C19.0136 27.4151 18.9976 27.3237 19 27.2319V19.3493C19 19.2582 18.9638 19.1707 18.8993 19.1063C18.8348 19.0418 18.7474 19.0056 18.6562 19.0056H10.7676C10.623 19.0073 10.4814 18.9642 10.3622 18.8823C10.2431 18.8004 10.1522 18.6836 10.102 18.548C10.0449 18.3862 10.0503 18.209 10.1171 18.051C10.184 17.893 10.3075 17.7658 10.4634 17.6942L26.9634 10.1252C27.0908 10.0668 27.2331 10.0488 27.3712 10.0735C27.5092 10.0983 27.6363 10.1647 27.7355 10.2638C27.8348 10.3628 27.9013 10.4899 27.9263 10.6279C27.9512 10.7659 27.9334 10.9082 27.8752 11.0357L20.3127 27.5357C20.2579 27.6556 20.1699 27.7571 20.059 27.8284C19.9482 27.8996 19.8192 27.9375 19.6875 27.9375Z" fill="#E1332B"/>
</svg>
