<svg width="22" height="22" viewBox="0 0 22 22" fill="none" xmlns="http://www.w3.org/2000/svg">
<path d="M11.4587 2.53351C11.8984 2.53351 12.194 2.53369 12.4226 2.54913C12.6448 2.56418 12.7525 2.59147 12.823 2.62042H12.8239C12.9621 2.67689 13.0881 2.76037 13.194 2.86554C13.3001 2.97086 13.3847 3.09672 13.4421 3.23468L13.4431 3.23761C13.4779 3.32026 13.508 3.45182 13.5212 3.77374V3.77472C13.5307 4.14472 13.6345 4.50638 13.822 4.8255C14.0095 5.14452 14.275 5.41056 14.5935 5.59894L14.6013 5.60382L14.6101 5.6087C14.9342 5.78895 15.2987 5.88417 15.6696 5.88605C16.0377 5.88791 16.4002 5.79765 16.7243 5.62335C17.0115 5.47214 17.1475 5.42848 17.2439 5.41534L17.2448 5.41632C17.5467 5.37694 17.8526 5.45654 18.0954 5.63995V5.64093C18.156 5.68724 18.2333 5.76658 18.3571 5.94952C18.4846 6.13791 18.6321 6.39084 18.8522 6.76886C19.0723 7.14664 19.2196 7.40027 19.32 7.60382C19.4158 7.79796 19.4462 7.90315 19.4567 7.97687V7.97784C19.476 8.12555 19.4662 8.27642 19.4274 8.42023C19.3888 8.56324 19.3223 8.69725 19.2321 8.81476C19.1885 8.87092 19.1189 8.93809 18.9685 9.0423L18.7907 9.15851C18.168 9.54574 17.7429 10.2253 17.7429 11.0003C17.743 11.7753 18.1681 12.4532 18.7907 12.8411C19.0001 12.9721 19.1104 13.0579 19.1765 13.1234L19.2302 13.1839C19.3212 13.3018 19.3886 13.4366 19.4274 13.5804C19.4663 13.7241 19.4759 13.8742 19.4567 14.0218C19.4464 14.0959 19.4162 14.2009 19.32 14.3958C19.2196 14.5992 19.0723 14.8529 18.8522 15.2308V15.2318C18.6325 15.6099 18.4846 15.8628 18.3571 16.0511C18.2334 16.2339 18.1563 16.3121 18.0964 16.3577V16.3587C17.8547 16.5428 17.5481 16.6242 17.2458 16.5843C17.1493 16.5715 17.0133 16.5285 16.7243 16.3763C16.4004 16.2022 16.0375 16.1117 15.6696 16.1136C15.2991 16.1155 14.9349 16.211 14.611 16.3909L14.6032 16.3958C13.9312 16.7808 13.5476 17.4835 13.5212 18.2181C13.5081 18.5462 13.4782 18.6797 13.4431 18.763L13.4421 18.7659C13.3847 18.9038 13.3 19.0288 13.194 19.1341C13.0881 19.2393 12.9622 19.3227 12.8239 19.3792L12.823 19.3802C12.7525 19.4091 12.6445 19.4355 12.4226 19.4505C12.194 19.4659 11.8984 19.4671 11.4587 19.4671C11.019 19.4671 10.7234 19.4659 10.4948 19.4505C10.2723 19.4355 10.164 19.4092 10.0935 19.3802C9.81197 19.2645 9.58961 19.0427 9.47432 18.7659L9.47334 18.763L9.44795 18.6888C9.43195 18.63 9.41837 18.5494 9.40791 18.429L9.39522 18.2161C9.3673 17.4831 8.98595 16.7827 8.31612 16.3968L8.30733 16.3919L8.1833 16.3275C7.8913 16.1884 7.57133 16.1152 7.24678 16.1136C6.87878 16.1118 6.51611 16.202 6.19209 16.3763C5.97484 16.4907 5.84417 16.5432 5.75166 16.5677L5.67061 16.5843C5.40483 16.6186 5.13765 16.5601 4.91377 16.4222L4.821 16.3587C4.7605 16.3124 4.68371 16.2335 4.56026 16.0511C4.43273 15.8626 4.28452 15.6091 4.06416 15.2308C3.84423 14.8532 3.69775 14.5993 3.59737 14.3958C3.5484 14.2965 3.51578 14.2209 3.49483 14.1605L3.45967 14.0189C3.44093 13.8722 3.45049 13.7232 3.48897 13.5804C3.52776 13.4366 3.59435 13.3009 3.68526 13.1829C3.74374 13.1083 3.84901 13.0137 4.12764 12.8392C4.74921 12.4518 5.17342 11.7744 5.17354 11.0003C5.17354 10.225 4.74857 9.54645 4.12569 9.15851H4.12666C3.84667 8.98339 3.74284 8.89013 3.68623 8.81671L3.68526 8.81476C3.50073 8.57623 3.42048 8.27629 3.45967 7.98077C3.46968 7.90648 3.49989 7.80133 3.59737 7.60382C3.69777 7.40038 3.84407 7.14677 4.06416 6.76886H4.06514C4.28489 6.39074 4.43184 6.13682 4.55928 5.94855C4.6212 5.85707 4.67138 5.79165 4.71358 5.74347L4.82002 5.64191C5.06311 5.45759 5.36907 5.37589 5.67159 5.41534C5.76799 5.42828 5.90385 5.47157 6.19209 5.62335C6.51612 5.79756 6.87881 5.88791 7.24678 5.88605C7.61755 5.88414 7.98227 5.78884 8.30635 5.6087L8.31416 5.60382L8.32198 5.59991C8.64088 5.41166 8.90665 5.14469 9.09444 4.8255C9.28062 4.50891 9.38321 4.15053 9.39424 3.78351L9.39522 3.78448C9.40823 3.45579 9.43823 3.32106 9.47334 3.23761L9.47432 3.23468C9.53173 3.09672 9.61636 2.97086 9.72237 2.86554C9.80176 2.7867 9.89239 2.72043 9.99092 2.66827L10.0925 2.62042C10.1639 2.59117 10.2727 2.56416 10.4948 2.54913C10.7233 2.53368 11.0188 2.53351 11.4587 2.53351ZM11.4587 7.55011C9.54734 7.55011 7.98701 9.08965 7.98701 11.0003C7.98719 12.9108 9.54744 14.4495 11.4587 14.4495C13.3708 14.4493 14.9292 12.9105 14.9294 11.0003C14.9294 9.08977 13.3699 7.5503 11.4587 7.55011Z" stroke="black" stroke-width="1.4"/>
</svg>
