<svg width="18" height="18" viewBox="0 0 18 18" fill="none" xmlns="http://www.w3.org/2000/svg">
<path d="M8.99887 10.4987C9.39665 10.4987 9.77813 10.3407 10.0594 10.0594C10.3407 9.77813 10.4987 9.39665 10.4987 8.99887C10.4987 8.6011 10.3407 8.21962 10.0594 7.93835C9.77813 7.65708 9.39665 7.49906 8.99887 7.49906C8.6011 7.49906 8.21962 7.65708 7.93835 7.93835C7.65708 8.21962 7.49906 8.6011 7.49906 8.99887C7.49906 9.39665 7.65708 9.77813 7.93835 10.0594C8.21962 10.3407 8.6011 10.4987 8.99887 10.4987ZM3.74953 8.99887C3.74953 7.60666 4.30259 6.27147 5.28703 5.28703C6.27147 4.30259 7.60666 3.74953 8.99887 3.74953C10.3911 3.74953 11.7263 4.30259 12.7107 5.28703C13.6952 6.27147 14.2482 7.60666 14.2482 8.99887C14.2482 10.3911 13.6952 11.7263 12.7107 12.7107C11.7263 13.6952 10.3911 14.2482 8.99887 14.2482C7.60666 14.2482 6.27147 13.6952 5.28703 12.7107C4.30259 11.7263 3.74953 10.3911 3.74953 8.99887ZM8.99887 5.24934C8.00444 5.24934 7.05073 5.64438 6.34756 6.34756C5.64438 7.05073 5.24934 8.00444 5.24934 8.99887C5.24934 9.99331 5.64438 10.947 6.34756 11.6502C7.05073 12.3534 8.00444 12.7484 8.99887 12.7484C9.99331 12.7484 10.947 12.3534 11.6502 11.6502C12.3534 10.947 12.7484 9.99331 12.7484 8.99887C12.7484 8.00444 12.3534 7.05073 11.6502 6.34756C10.947 5.64438 9.99331 5.24934 8.99887 5.24934ZM0 8.99962C0 4.02925 4.02925 0 8.99962 0C13.97 0 18 4.02925 18 8.99962C18 13.97 13.9708 18 8.99887 18C4.02925 18 0 13.9715 0 8.99962ZM8.99962 1.49981C4.85789 1.49981 1.49981 4.85789 1.49981 8.99962C1.49981 13.1421 4.85789 16.5002 8.99962 16.5002C13.1421 16.5002 16.5002 13.1421 16.5002 8.99962C16.5002 4.85789 13.1429 1.49981 8.99962 1.49981Z" fill="black"/>
</svg>
