<svg width="40" height="40" viewBox="0 0 40 40" fill="none" xmlns="http://www.w3.org/2000/svg">
<rect width="40" height="40" rx="8" fill="#F2F2F2"/>
<path d="M22.4961 10.0003H17.4961C16.6677 10.0003 15.9961 10.6719 15.9961 11.5003C15.9961 12.3287 16.6677 13.0003 17.4961 13.0003H22.4961C23.3245 13.0003 23.9961 12.3287 23.9961 11.5003C23.9961 10.6719 23.3245 10.0003 22.4961 10.0003Z" stroke="#141B34" stroke-width="1.5" stroke-linecap="round" stroke-linejoin="round"/>
<path d="M15.9961 23.0003H19.4247M15.9961 19.0003H23.9961" stroke="#141B34" stroke-width="1.5" stroke-linecap="round" stroke-linejoin="round"/>
<path d="M23.9961 11.5003C25.5496 11.5471 26.4761 11.7204 27.1174 12.3616C27.9961 13.2403 27.9961 14.6545 27.9961 17.4829V23.9997C27.9961 26.8282 27.9961 28.2424 27.1174 29.1211C26.2387 29.9997 24.8245 29.9997 21.9961 29.9997H17.9961C15.1677 29.9997 13.7535 29.9997 12.8748 29.1211C11.9961 28.2424 11.9961 26.8282 11.9961 23.9998L11.9961 17.483C11.9961 14.6545 11.9961 13.2403 12.8748 12.3616C13.5161 11.7203 14.4426 11.5471 15.996 11.5003" stroke="#141B34" stroke-width="1.5" stroke-linecap="round" stroke-linejoin="round"/>
</svg>
